<svg id="Layer_1" data-name="Layer 1" xmlns="http://www.w3.org/2000/svg" viewBox="0 0 893.91 226.42"><defs><style>.cls-1{fill:#f58220;}.cls-2{fill:#fff;}.cls-3{fill:#231f20;}</style></defs><title>NRC_ENG_logo_horizontal_CMYK_pos_LEFT</title><rect class="cls-1" width="226.41" height="226.42"/><path class="cls-2" d="M116.38,226.37L91,179.33l0.42,47H74.8V147.62H91.39l25.41,47-0.42-47H133v78.74H116.38Z" transform="translate(-50.23 -50.23)"/><path class="cls-2" d="M158.65,226.37h-16.8V147.62h26.78c21.21,0,28.53,9.66,28.14,24.67-0.36,13.46-5.39,17.22-13.68,21.21l19.27,32.86H182.71l-15.91-29.5h-8.16v29.5Zm0-44.73h11.44c7.46,0,8.41-5,8.41-9.34s-0.95-9.34-8.41-9.34H158.65v18.69Z" transform="translate(-50.23 -50.23)"/><path class="cls-2" d="M235.7,146.15c9.13,0,13.23,1.68,16.38,2.95v15.85a34.89,34.89,0,0,0-14.7-3c-12.81,0-18.69,5.14-18.69,25.09s5.88,25.09,18.69,25.09a34.89,34.89,0,0,0,14.7-3V224.9c-3.15,1.26-7.25,2.93-16.38,2.93-23,0-33.91-11.23-34-40.84C201.79,157.39,212.71,146.15,235.7,146.15Z" transform="translate(-50.23 -50.23)"/><path class="cls-3" d="M357.71,148.08V192.9h-5.39l-24.57-36.44,0.51,36.44h-5.59V148.08h5.59L352.57,184l-0.25-35.93h5.39Z" transform="translate(-50.23 -50.23)"/><path class="cls-3" d="M391,194c-13.65,0-22.41-9.59-22.41-23.55,0-16.63,11.49-23.55,22.6-23.55,12.57,0,22.54,8.51,22.54,23.11C413.73,183.5,405.86,194,391,194Zm0.19-42.27c-11.3,0-16.12,8.7-16.12,18.79,0,9.39,4.64,18.79,16.19,18.79,12.06,0,16.06-10,16-19.23C407.19,159.26,401.54,151.77,391.2,151.77Z" transform="translate(-50.23 -50.23)"/><path class="cls-3" d="M430.46,173.85v19h-5.84V148.08h16.63c6.22,0.07,9.9.07,13.39,2.73,3.3,2.48,4.7,6.22,4.7,10.34,0,10.48-8.44,11.94-10.6,12.32l12.57,19.43H454.2l-12.19-19H430.46Zm0-4.95h11.87a22.3,22.3,0,0,0,5.46-.44c4.13-1,5.59-4,5.59-7.24a8,8,0,0,0-2.67-6.28c-2.35-2-5.27-1.91-8.7-1.91H430.46V168.9Z" transform="translate(-50.23 -50.23)"/><path class="cls-3" d="M521.78,148.08h6.16L514.22,192.9h-5.84l-11.81-37.13L485.15,192.9h-6l-13.77-44.82h6.28l10.6,37.14,11.36-37.14h5.84l11.8,37.14Z" transform="translate(-50.23 -50.23)"/><path class="cls-3" d="M542.47,172.46v15.23h25.9v5.21H536.7V148.08h30.91v5.27H542.47v13.84h21.84v5.27H542.47Z" transform="translate(-50.23 -50.23)"/><path class="cls-3" d="M618.23,169.22V192.9h-5.14v-6.29c-3.75,5.46-10.29,7.43-16.38,7.43-13.84,0-22.34-9.71-22.34-23,0-11.43,6.86-24.12,23.17-24.12a23.06,23.06,0,0,1,15.62,5.71,23.52,23.52,0,0,1,5.08,7.24l-6.16,1.65a14.37,14.37,0,0,0-3.11-5.27c-1.78-1.91-5.33-4.38-11.23-4.38-12.57,0-16.82,10.41-16.82,18.54,0,8.44,4.38,18.41,16.57,18.41,5.52,0,15.8-2.73,15.62-14.6H597.41v-5h20.82Z" transform="translate(-50.23 -50.23)"/><path class="cls-3" d="M636.43,148.08V192.9h-6V148.08h6Z" transform="translate(-50.23 -50.23)"/><path class="cls-3" d="M672.84,179.19H655.77l-5,13.71H644.4l17.08-44.82h6.22L684,192.9h-6.28Zm-1.77-5-6.54-18.66-6.86,18.66h13.39Z" transform="translate(-50.23 -50.23)"/><path class="cls-3" d="M727.54,148.08V192.9h-5.39l-24.57-36.44,0.51,36.44H692.5V148.08h5.59L722.4,184l-0.25-35.93h5.39Z" transform="translate(-50.23 -50.23)"/><path class="cls-3" d="M328.51,247.05v19h-5.84V221.28H339.3c6.22,0.06,9.9.06,13.39,2.73,3.3,2.48,4.7,6.22,4.7,10.35,0,10.47-8.44,11.93-10.6,12.32l12.57,19.42h-7.11l-12.19-19H328.51Zm0-4.95h11.87a22.11,22.11,0,0,0,5.46-.45c4.13-1,5.59-4,5.59-7.23a8,8,0,0,0-2.67-6.29c-2.35-2-5.27-1.9-8.7-1.9H328.51V242.1Z" transform="translate(-50.23 -50.23)"/><path class="cls-3" d="M373.92,245.66v15.23h25.9v5.2H368.14V221.28h30.91v5.27H373.92v13.84h21.84v5.27H373.92Z" transform="translate(-50.23 -50.23)"/><path class="cls-3" d="M414.74,245V266.1h-6V221.22h28.75v5.33H414.74v13.27h21.2V245h-21.2Z" transform="translate(-50.23 -50.23)"/><path class="cls-3" d="M479.88,221.22v28.63a27.32,27.32,0,0,1-.57,5.84c-1.27,5.39-6.28,11.49-16.76,11.49-3.3,0-9.52-.51-13.77-6-3-3.8-2.92-7.17-2.92-12.19v-27.8h6v27c-0.06,4.13-.06,7.62,2.29,10.47,2.66,3.3,6.6,3.49,8.38,3.49,5.27,0,9.4-2.54,10.73-7.42a28.59,28.59,0,0,0,.57-6.67V221.22h6Z" transform="translate(-50.23 -50.23)"/><path class="cls-3" d="M534.33,242.42V266.1h-5.14v-6.28c-3.75,5.45-10.28,7.42-16.37,7.42-13.84,0-22.34-9.71-22.34-23,0-11.43,6.85-24.12,23.17-24.12a23,23,0,0,1,15.61,5.71,23.4,23.4,0,0,1,5.08,7.23l-6.16,1.65a14.48,14.48,0,0,0-3.11-5.27c-1.78-1.91-5.33-4.38-11.23-4.38-12.57,0-16.82,10.41-16.82,18.54,0,8.44,4.38,18.41,16.57,18.41,5.52,0,15.81-2.73,15.62-14.6H513.51v-5h20.82Z" transform="translate(-50.23 -50.23)"/><path class="cls-3" d="M552.54,245.66v15.23h25.9v5.2H546.77V221.28h30.91v5.27H552.54v13.84h21.84v5.27H552.54Z" transform="translate(-50.23 -50.23)"/><path class="cls-3" d="M593.17,245.66v15.23h25.9v5.2H587.4V221.28h30.91v5.27H593.17v13.84H615v5.27H593.17Z" transform="translate(-50.23 -50.23)"/><path class="cls-3" d="M690.15,249.85c-1.91,8.51-9.08,17.39-22.09,17.39-14.79,0-21.9-11.11-21.9-23.55,0-12.7,7.3-23.55,22.73-23.55s19.3,10.73,20.38,13.71l-6,1.27a13,13,0,0,0-2.66-5,14.81,14.81,0,0,0-11.74-5.2,15.46,15.46,0,0,0-12.32,5.65c-2.86,3.55-3.75,8.25-3.75,12.82,0,11.11,5.65,18.92,16,18.92,6.67,0,13.46-3.75,14.86-13.2Z" transform="translate(-50.23 -50.23)"/><path class="cls-3" d="M719.87,267.24c-13.64,0-22.41-9.59-22.41-23.55,0-16.63,11.49-23.55,22.6-23.55,12.57,0,22.54,8.5,22.54,23.11C742.59,256.7,734.72,267.24,719.87,267.24ZM720.06,225c-11.3,0-16.12,8.7-16.12,18.79,0,9.39,4.63,18.79,16.19,18.79,12.06,0,16.06-10,16-19.23C736.05,232.46,730.4,225,720.06,225Z" transform="translate(-50.23 -50.23)"/><path class="cls-3" d="M787.19,221.22v28.63a27.06,27.06,0,0,1-.57,5.84c-1.27,5.39-6.29,11.49-16.76,11.49-3.3,0-9.52-.51-13.77-6-3-3.8-2.92-7.17-2.92-12.19v-27.8h6v27c-0.06,4.13-.06,7.62,2.29,10.47,2.67,3.3,6.6,3.49,8.38,3.49,5.27,0,9.39-2.54,10.73-7.42a28.59,28.59,0,0,0,.57-6.67V221.22h6Z" transform="translate(-50.23 -50.23)"/><path class="cls-3" d="M835,221.28V266.1h-5.4L805,229.66l0.51,36.44H800V221.28h5.59l24.31,35.93-0.25-35.93H835Z" transform="translate(-50.23 -50.23)"/><path class="cls-3" d="M889.82,249.85c-1.91,8.51-9.08,17.39-22.09,17.39-14.79,0-21.9-11.11-21.9-23.55,0-12.7,7.3-23.55,22.72-23.55s19.3,10.73,20.38,13.71l-6,1.27a13,13,0,0,0-2.67-5,14.81,14.81,0,0,0-11.74-5.2,15.45,15.45,0,0,0-12.31,5.65c-2.86,3.55-3.75,8.25-3.75,12.82,0,11.11,5.65,18.92,16,18.92,6.66,0,13.46-3.75,14.85-13.2Z" transform="translate(-50.23 -50.23)"/><path class="cls-3" d="M904.34,221.28V266.1h-6V221.28h6Z" transform="translate(-50.23 -50.23)"/><path class="cls-3" d="M922.43,260.76h21.71v5.33H916.46V221.22h6v39.54Z" transform="translate(-50.23 -50.23)"/><div xmlns="" id="saka-gui-root"><div><div><style/></div></div></div></svg>