<svg width="24" height="24" viewBox="0 0 24 24" fill="none" xmlns="http://www.w3.org/2000/svg">
<path fill-rule="evenodd" clip-rule="evenodd" d="M3.30705 21H4.89191C4.94843 20.9686 4.9877 20.9089 4.98929 20.8406C5.03617 19.0312 5.76039 17.3367 7.04242 16.0523C8.36566 14.7244 10.1265 13.9933 12 13.9922C13.8735 13.9933 15.6343 14.7244 16.9576 16.0523C18.2396 17.3367 18.9638 19.0312 19.0107 20.8406C19.0123 20.9089 19.0516 20.9686 19.1081 21H20.6929C20.7089 20.9912 20.7236 20.98 20.7364 20.9669C20.7539 20.949 20.7676 20.9277 20.7767 20.9044C20.7859 20.8812 20.7902 20.8563 20.7896 20.8312C20.7677 19.7184 20.5339 18.6198 20.1006 17.5945C19.6601 16.5475 19.0201 15.5962 18.2162 14.7937C17.4076 13.9828 16.4677 13.3477 15.4201 12.9047C15.4154 12.9023 15.4107 12.9006 15.406 12.8988C15.4013 12.8971 15.3966 12.8953 15.392 12.893C16.8498 11.8359 17.7966 10.118 17.7966 8.17969C17.7966 4.96935 15.2031 2.36816 12 2.36719C8.79692 2.36816 6.20335 4.96935 6.20335 8.17969C6.20335 10.118 7.15023 11.8359 8.60804 12.893C8.60335 12.8953 8.59867 12.8971 8.59398 12.8988C8.58929 12.9006 8.5846 12.9023 8.57992 12.9047C7.53226 13.3477 6.59242 13.9828 5.78382 14.7937C4.9799 15.5962 4.33987 16.5475 3.89945 17.5945C3.46612 18.6198 3.23226 19.7184 3.21039 20.8312C3.20976 20.8563 3.21415 20.8812 3.22329 20.9044C3.23243 20.9277 3.24614 20.949 3.26362 20.9669C3.27643 20.98 3.29107 20.9912 3.30705 21ZM12 4.14844C10.9258 4.14951 9.91722 4.56894 9.15882 5.32969C8.39945 6.09141 7.97992 7.10391 7.97992 8.17969C7.97872 8.70901 8.08227 9.23335 8.2846 9.72248C8.48693 10.2116 8.78405 10.6559 9.15882 11.0297C9.91956 11.7904 10.9281 12.2099 12 12.2109C13.0719 12.2099 14.0804 11.7904 14.8412 11.0297C15.216 10.6559 15.5131 10.2116 15.7154 9.72248C15.9177 9.23335 16.0213 8.70901 16.0201 8.17969C16.0201 7.10391 15.6006 6.09141 14.8412 5.32969C14.0828 4.56894 13.0742 4.14951 12 4.14844Z" fill="white" color="white"/>
</svg>
