<?xml version="1.0" encoding="utf-8"?>
<!-- Generator: Adobe Illustrator 24.3.0, SVG Export Plug-In . SVG Version: 6.00 Build 0)  -->
<svg version="1.1" id="Layer_1" xmlns="http://www.w3.org/2000/svg" xmlns:xlink="http://www.w3.org/1999/xlink" x="0px" y="0px"
	 viewBox="0 0 40 40" style="enable-background:new 0 0 40 40;" xml:space="preserve">
<path d="M26.9,11h-1.7v3.4L23.9,14l-1.3,0.4V11h-9.9v18h14.1c0.2,0,0.4-0.2,0.4-0.4V11.4C27.3,11.2,27.1,11,26.9,11z M15.3,27.5
	c0,0.1-0.1,0.2-0.2,0.2h-0.9c-0.1,0-0.2-0.1-0.2-0.2v-15c0-0.1,0.1-0.2,0.2-0.2h0.9c0.1,0,0.2,0.1,0.2,0.2V27.5z M23.6,20.9h-5.6
	c-0.4,0-0.6-0.3-0.6-0.6s0.3-0.6,0.6-0.6h5.6c0.4,0,0.6,0.3,0.6,0.6S24,20.9,23.6,20.9z M23.6,18.3h-5.6c-0.4,0-0.6-0.3-0.6-0.6
	c0-0.4,0.3-0.6,0.6-0.6h5.6c0.4,0,0.6,0.3,0.6,0.6C24.3,18,24,18.3,23.6,18.3z"/>
</svg>
