<?xml version="1.0" encoding="utf-8"?>
<!-- Generator: Adobe Illustrator 24.3.0, SVG Export Plug-In . SVG Version: 6.00 Build 0)  -->
<svg version="1.1" id="Layer_1" xmlns="http://www.w3.org/2000/svg" xmlns:xlink="http://www.w3.org/1999/xlink" x="0px" y="0px"
	 viewBox="0 0 40 41" style="enable-background:new 0 0 40 41;" xml:space="preserve">
<style type="text/css">
	.st0{fill-rule:evenodd;clip-rule:evenodd;}
</style>
<path class="st0" d="M14.1,14.2l1.4,0.4c0.3,0.1,0.6-0.1,0.7-0.4c0.1-0.3-0.1-0.6-0.4-0.7l-1.4-0.4c-0.3-0.1-0.6,0.1-0.7,0.4
	C13.6,13.9,13.8,14.1,14.1,14.2z M19.1,16.7l-0.9-0.3c-1-0.3-1.6-1.3-1.3-2.3l0.1-0.2l0.9,0.3c1,0.3,1.6,1.3,1.3,2.3L19.1,16.7z
	 M18.8,17.7l-0.9-0.3c-1-0.3-2,0.3-2.3,1.3L15.5,19l0.9,0.3c1,0.3,2-0.3,2.3-1.3L18.8,17.7z M28.6,21.8H11.4c-0.2,0-0.4,0.2-0.4,0.4
	c0,2.7,2.2,4.9,4.9,4.9h8.2c2.7,0,4.9-2.2,4.9-4.9C29,21.9,28.8,21.8,28.6,21.8z M19.6,20.1l-0.9-0.3l0.1-0.2c0.3-1,1.3-1.6,2.3-1.3
	l0.9,0.3l-0.1,0.2C21.6,19.8,20.6,20.4,19.6,20.1z M21.7,20.7l0.9,0.3c1,0.3,2-0.3,2.3-1.3l0.1-0.2l-0.9-0.3c-1-0.3-2,0.3-2.3,1.3
	L21.7,20.7z M21.3,17.3l0.9,0.3l0.1-0.2c0.3-1-0.3-2-1.3-2.3L20,14.7L19.9,15C19.7,16,20.3,17,21.3,17.3z M25.3,18.3l-0.9-0.3
	c-1-0.3-1.6-1.3-1.3-2.3l0.1-0.2l0.9,0.3c1,0.3,1.6,1.3,1.3,2.3L25.3,18.3z M28.2,19.7c0.1-0.3-0.1-0.6-0.4-0.7L26,18.5l-0.3,1
	l1.9,0.5C27.9,20.1,28.2,20,28.2,19.7z M12.6,17.7c0.1-0.3,0.4-0.5,0.7-0.4l1.4,0.4c0.3,0.1,0.5,0.4,0.4,0.7
	c-0.1,0.3-0.4,0.5-0.7,0.4L13,18.3C12.7,18.3,12.5,18,12.6,17.7z M15.9,16.9l-3.8-1c-0.3-0.1-0.5-0.4-0.4-0.7
	c0.1-0.3,0.4-0.5,0.7-0.4l3.8,1c0.3,0.1,0.5,0.4,0.4,0.7C16.5,16.8,16.2,17,15.9,16.9z"/>
</svg>
