<?xml version="1.0" encoding="utf-8"?>
<!-- Generator: Adobe Illustrator 24.3.0, SVG Export Plug-In . SVG Version: 6.00 Build 0)  -->
<svg version="1.1" id="Layer_1" xmlns="http://www.w3.org/2000/svg" xmlns:xlink="http://www.w3.org/1999/xlink" x="0px" y="0px"
	 viewBox="0 0 40 40" style="enable-background:new 0 0 40 40;" xml:space="preserve">
<style type="text/css">
	.st0{fill-rule:evenodd;clip-rule:evenodd;}
</style>
<path class="st0" d="M20.5,11.1l8.1,4.7c0.3,0.2,0.5,0.5,0.5,0.8v11.4c0,0.5-0.4,0.9-0.9,0.9c-0.5,0-0.9-0.4-0.9-0.9V17.2L20,13
	l-7.1,4.1v10.9c0,0.5-0.4,0.9-0.9,0.9c-0.5,0-0.9-0.4-0.9-0.9V16.6c0-0.3,0.2-0.6,0.5-0.8l8.1-4.7C19.8,11,20.2,11,20.5,11.1z
	 M20,17c0.6,0,1.1-0.5,1.1-1.1c0-0.6-0.5-1.1-1.1-1.1s-1.1,0.5-1.1,1.1C18.9,16.5,19.4,17,20,17z M20,17.7c-2.2,0-3.9,1.5-3.9,3.6
	c0,0.3,0.3,0.6,0.6,0.6s0.6-0.3,0.6-0.6c0-0.9,0.5-1.7,1.3-2.1v3.4v5.8c0,0.3,0.3,0.6,0.6,0.6s0.6-0.3,0.6-0.6v-4.7h0.8v4.7
	c0,0.3,0.3,0.6,0.6,0.6c0.3,0,0.6-0.3,0.6-0.6V23v-0.4v-3.4c0.8,0.4,1.3,1.2,1.3,2.1c0,0.3,0.3,0.6,0.6,0.6c0.3,0,0.6-0.3,0.6-0.6
	C23.9,19.3,22.2,17.7,20,17.7z"/>
</svg>
