<?xml version="1.0" encoding="UTF-8" standalone="no"?>
<svg
   xmlns:dc="http://purl.org/dc/elements/1.1/"
   xmlns:cc="http://creativecommons.org/ns#"
   xmlns:rdf="http://www.w3.org/1999/02/22-rdf-syntax-ns#"
   xmlns:svg="http://www.w3.org/2000/svg"
   xmlns="http://www.w3.org/2000/svg"
   xmlns:sodipodi="http://sodipodi.sourceforge.net/DTD/sodipodi-0.dtd"
   xmlns:inkscape="http://www.inkscape.org/namespaces/inkscape"
   id="Layer_1"
   data-name="Layer 1"
   viewBox="22 0 408.8 408.8"
   version="1.1"
   sodipodi:docname="nrc.svg"
   inkscape:export-filename="/home/irena/Documents/go/src/github.com/nrc-no/core/frontend/assets/png/nrc.png"
   inkscape:export-xdpi="96"
   inkscape:export-ydpi="96"
   inkscape:version="0.92.5 (2060ec1f9f, 2020-04-08)">
  <metadata
     id="metadata65">
    <rdf:RDF>
      <cc:Work
         rdf:about="">
        <dc:format>image/svg+xml</dc:format>
        <dc:type
           rdf:resource="http://purl.org/dc/dcmitype/StillImage" />
      </cc:Work>
    </rdf:RDF>
  </metadata>
  <sodipodi:namedview
     pagecolor="#ffffff"
     bordercolor="#666666"
     borderopacity="1"
     objecttolerance="10"
     gridtolerance="10"
     guidetolerance="10"
     inkscape:pageopacity="0"
     inkscape:pageshadow="2"
     inkscape:window-width="1862"
     inkscape:window-height="1016"
     id="namedview63"
     showgrid="false"
     inkscape:zoom="0.57729943"
     inkscape:cx="204.39999"
     inkscape:cy="204.39999"
     inkscape:window-x="1978"
     inkscape:window-y="27"
     inkscape:window-maximized="1"
     inkscape:current-layer="Layer_1" />
  <defs
     id="defs4">
    <style
       id="style2">.cls-1{fill:#ff7602;}.cls-2{fill:#fff;}.cls-3{fill:#222221;}</style>
  </defs>
  <title
     id="title6">English master pos centered</title>
  <rect
     class="cls-1"
     x="123.44"
     y="46.03"
     width="207.23"
     height="207.23"
     id="rect8" />
  <path
     class="cls-2"
     d="M185.72,207.23l-23.25-43,.38,43H147.67V135.16h15.18l23.26,43-.39-43H200.9v72.06Z"
     id="path10" />
  <path
     class="cls-2"
     d="M224.41,207.23H209V135.16h24.51c19.41,0,26.11,8.84,25.75,22.58-.32,12.32-4.93,15.75-12.52,19.4l17.63,30.08h-18l-14.56-27h-7.47Zm0-40.94h10.47c6.83,0,7.69-4.61,7.69-8.55s-.87-8.55-7.69-8.55H224.41Z"
     id="path12" />
  <path
     class="cls-2"
     d="M294.94,133.81c8.36,0,12.1,1.54,15,2.69V151a32,32,0,0,0-13.45-2.78c-11.72,0-17.1,4.71-17.1,23s5.38,23,17.1,23a31.9,31.9,0,0,0,13.45-2.79v14.51c-2.88,1.16-6.63,2.69-15,2.69-21,0-31-10.29-31.13-37.38C263.9,144.1,273.89,133.81,294.94,133.81Z"
     id="path14" />
  <path
     class="cls-3"
     d="M128.63,292.46v26.22h-3.16L111.1,297.36l.3,21.32h-3.27V292.46h3.27l14.22,21-.15-21Z"
     id="path16" />
  <path
     class="cls-3"
     d="M148,319.34c-8,0-13.11-5.61-13.11-13.78,0-9.73,6.72-13.78,13.22-13.78,7.35,0,13.18,5,13.18,13.52C161.34,313.18,156.74,319.34,148,319.34Zm.11-24.73c-6.61,0-9.43,5.09-9.43,11,0,5.5,2.71,11,9.47,11,7.06,0,9.39-5.87,9.36-11.25C157.52,299,154.21,294.61,148.16,294.61Z"
     id="path18" />
  <path
     class="cls-3"
     d="M171.07,307.53v11.14h-3.42V292.46h9.73c3.64,0,5.79,0,7.83,1.6a7.23,7.23,0,0,1,2.75,6.05c0,6.13-4.94,7-6.2,7.2l7.35,11.36H185l-7.13-11.14Zm0-2.89H178a12.92,12.92,0,0,0,3.19-.26,4,4,0,0,0,3.27-4.23,4.67,4.67,0,0,0-1.56-3.68c-1.37-1.15-3.08-1.11-5.09-1.11h-6.76Z"
     id="path20" />
  <path
     class="cls-3"
     d="M224.42,292.46H228l-8,26.22h-3.42l-6.91-21.72L203,318.67H199.5l-8.06-26.22h3.68l6.2,21.72L208,292.46h3.42l6.91,21.72Z"
     id="path22" />
  <path
     class="cls-3"
     d="M236.46,306.71v8.91h15.15v3H233.08V292.46h18.08v3.08H236.46v8.09h12.77v3.08Z"
     id="path24" />
  <path
     class="cls-3"
     d="M280.71,304.82v13.85h-3V315c-2.19,3.19-6,4.34-9.58,4.34-8.09,0-13.07-5.68-13.07-13.44,0-6.68,4-14.11,13.55-14.11a13.48,13.48,0,0,1,9.13,3.34,13.75,13.75,0,0,1,3,4.23l-3.6,1a8.46,8.46,0,0,0-1.82-3.08,8.71,8.71,0,0,0-6.57-2.56c-7.35,0-9.84,6.09-9.84,10.84,0,4.94,2.56,10.77,9.69,10.77,3.23,0,9.25-1.6,9.13-8.54h-9.17v-2.93Z"
     id="path26" />
  <path
     class="cls-3"
     d="M291.29,292.46v26.22h-3.53V292.46Z"
     id="path28" />
  <path
     class="cls-3"
     d="M312.53,310.65h-10l-2.93,8H295.9l10-26.22h3.64l9.54,26.22h-3.67Zm-1-2.93-3.83-10.92-4,10.92Z"
     id="path30" />
  <path
     class="cls-3"
     d="M344.46,292.46v26.22h-3.16l-14.37-21.32.3,21.32H324V292.46h3.27l14.22,21-.15-21Z"
     id="path32" />
  <path
     class="cls-3"
     d="M49.44,351.63v11.14H46V336.56h9.73c3.64,0,5.79,0,7.84,1.6a7.23,7.23,0,0,1,2.75,6.05c0,6.13-4.94,7-6.2,7.2l7.35,11.36H63.33L56.2,351.63Zm0-2.9h6.94a13,13,0,0,0,3.19-.26,4,4,0,0,0,3.27-4.23,4.66,4.66,0,0,0-1.56-3.68c-1.37-1.15-3.08-1.11-5.09-1.11H49.44Z"
     id="path34" />
  <path
     class="cls-3"
     d="M75.95,350.82v8.91H91.1v3H72.57V336.56H90.65v3.08H75.95v8.09H88.72v3.08Z"
     id="path36" />
  <path
     class="cls-3"
     d="M99.76,350.44v12.33H96.27V336.52h16.82v3.12H99.76v7.76h12.4v3Z"
     id="path38" />
  <path
     class="cls-3"
     d="M137.81,336.52v16.75a15.89,15.89,0,0,1-.33,3.42c-.74,3.16-3.68,6.72-9.8,6.72a9.8,9.8,0,0,1-8.06-3.49c-1.74-2.23-1.71-4.2-1.71-7.13V336.52h3.53V352.3c0,2.41,0,4.46,1.34,6.13a6.07,6.07,0,0,0,4.9,2c3.08,0,5.5-1.49,6.28-4.34a16.64,16.64,0,0,0,.33-3.9V336.52Z"
     id="path40" />
  <path
     class="cls-3"
     d="M169.58,348.92v13.85h-3V359.1c-2.19,3.19-6,4.34-9.58,4.34-8.09,0-13.07-5.68-13.07-13.44,0-6.69,4-14.11,13.55-14.11a13.48,13.48,0,0,1,9.13,3.34,13.75,13.75,0,0,1,3,4.23l-3.6,1a8.42,8.42,0,0,0-1.82-3.08,8.71,8.71,0,0,0-6.57-2.56c-7.35,0-9.84,6.09-9.84,10.84,0,4.94,2.56,10.77,9.69,10.77,3.23,0,9.25-1.6,9.13-8.54H157.4v-2.93Z"
     id="path42" />
  <path
     class="cls-3"
     d="M180.18,350.82v8.91h15.15v3H176.8V336.56h18.08v3.08h-14.7v8.09H193v3.08Z"
     id="path44" />
  <path
     class="cls-3"
     d="M203.88,350.82v8.91H219v3H200.5V336.56h18.08v3.08H203.88v8.09h12.77v3.08Z"
     id="path46" />
  <path
     class="cls-3"
     d="M260.62,353.27a12.78,12.78,0,0,1-12.92,10.17c-8.65,0-12.81-6.5-12.81-13.78s4.27-13.78,13.29-13.78,11.29,6.28,11.92,8l-3.53.74a7.56,7.56,0,0,0-1.56-2.93,8.66,8.66,0,0,0-6.87-3,9,9,0,0,0-7.2,3.3,11.82,11.82,0,0,0-2.19,7.5c0,6.5,3.31,11.07,9.36,11.07,3.9,0,7.87-2.19,8.69-7.72Z"
     id="path48" />
  <path
     class="cls-3"
     d="M277.94,363.44c-8,0-13.11-5.61-13.11-13.78,0-9.73,6.72-13.78,13.22-13.78,7.35,0,13.18,5,13.18,13.52C291.23,357.28,286.63,363.44,277.94,363.44Zm.11-24.73c-6.61,0-9.43,5.09-9.43,11,0,5.5,2.71,11,9.47,11,7.06,0,9.4-5.87,9.36-11.25C287.41,343.09,284.1,338.71,278,338.71Z"
     id="path50" />
  <path
     class="cls-3"
     d="M317.26,336.52v16.75a15.89,15.89,0,0,1-.33,3.42c-.74,3.16-3.68,6.72-9.8,6.72a9.8,9.8,0,0,1-8.06-3.49c-1.75-2.23-1.71-4.2-1.71-7.13V336.52h3.53V352.3c0,2.41,0,4.46,1.34,6.13a6.07,6.07,0,0,0,4.9,2c3.08,0,5.5-1.49,6.28-4.34a16.84,16.84,0,0,0,.34-3.9V336.52Z"
     id="path52" />
  <path
     class="cls-3"
     d="M345.17,336.56v26.22H342l-14.37-21.32.3,21.32h-3.27V336.56h3.27l14.22,21-.15-21Z"
     id="path54" />
  <path
     class="cls-3"
     d="M377.17,353.27a12.78,12.78,0,0,1-12.92,10.17c-8.65,0-12.81-6.5-12.81-13.78s4.27-13.78,13.29-13.78,11.29,6.28,11.92,8l-3.53.74a7.58,7.58,0,0,0-1.56-2.93,8.66,8.66,0,0,0-6.87-3,9,9,0,0,0-7.21,3.3,11.83,11.83,0,0,0-2.19,7.5c0,6.5,3.3,11.07,9.36,11.07,3.9,0,7.87-2.19,8.69-7.72Z"
     id="path56" />
  <path
     class="cls-3"
     d="M385.61,336.56v26.22h-3.53V336.56Z"
     id="path58" />
  <path
     class="cls-3"
     d="M396.13,359.65h12.7v3.12H392.64V336.52h3.49Z"
     id="path60" />
</svg>
