<svg width="24" height="24" viewBox="0 0 24 24" fill="none" xmlns="http://www.w3.org/2000/svg">
<path fill-rule="evenodd" clip-rule="evenodd" d="M12 7.84374C13.1 7.84374 14 6.93389 14 5.82186C14 4.70983 13.1 3.79999 12 3.79999C10.9 3.79999 10 4.70983 10 5.82186C10 6.93389 10.9 7.84374 12 7.84374ZM12 9.86561C10.9 9.86561 10 10.7755 10 11.8875C10 12.9995 10.9 13.9094 12 13.9094C13.1 13.9094 14 12.9995 14 11.8875C14 10.7755 13.1 9.86561 12 9.86561ZM12 15.9312C10.9 15.9312 10 16.8411 10 17.9531C10 19.0651 10.9 19.975 12 19.975C13.1 19.975 14 19.0651 14 17.9531C14 16.8411 13.1 15.9312 12 15.9312Z" fill="white"/>
</svg>
