<svg width="24" height="24" viewBox="0 0 24 24" fill="none" xmlns="http://www.w3.org/2000/svg">
<path d="M21.6937 20.4023L15.607 14.3156C16.5516 13.0945 17.0625 11.6016 17.0625 10.0312C17.0625 8.15156 16.3289 6.38906 15.0023 5.06016C13.6758 3.73125 11.9086 3 10.0312 3C8.15391 3 6.38672 3.73359 5.06016 5.06016C3.73125 6.38672 3 8.15156 3 10.0312C3 11.9086 3.73359 13.6758 5.06016 15.0023C6.38672 16.3312 8.15156 17.0625 10.0312 17.0625C11.6016 17.0625 13.0922 16.5516 14.3133 15.6094L20.4 21.6937C20.4178 21.7116 20.439 21.7258 20.4624 21.7354C20.4857 21.7451 20.5107 21.7501 20.5359 21.7501C20.5612 21.7501 20.5862 21.7451 20.6095 21.7354C20.6328 21.7258 20.654 21.7116 20.6719 21.6937L21.6937 20.6742C21.7116 20.6564 21.7258 20.6352 21.7354 20.6119C21.7451 20.5885 21.7501 20.5635 21.7501 20.5383C21.7501 20.513 21.7451 20.488 21.7354 20.4647C21.7258 20.4414 21.7116 20.4202 21.6937 20.4023ZM13.7438 13.7438C12.75 14.7352 11.4328 15.2812 10.0312 15.2812C8.62969 15.2812 7.3125 14.7352 6.31875 13.7438C5.32734 12.75 4.78125 11.4328 4.78125 10.0312C4.78125 8.62969 5.32734 7.31016 6.31875 6.31875C7.3125 5.32734 8.62969 4.78125 10.0312 4.78125C11.4328 4.78125 12.7523 5.325 13.7438 6.31875C14.7352 7.3125 15.2812 8.62969 15.2812 10.0312C15.2812 11.4328 14.7352 12.7523 13.7438 13.7438Z" fill="white"/>
</svg>
