<?xml version="1.0" encoding="utf-8"?>
<!-- Generator: Adobe Illustrator 24.3.0, SVG Export Plug-In . SVG Version: 6.00 Build 0)  -->
<svg version="1.1" id="Layer_1" xmlns="http://www.w3.org/2000/svg" xmlns:xlink="http://www.w3.org/1999/xlink" x="0px" y="0px"
	 viewBox="0 0 40 40" style="enable-background:new 0 0 40 40;" xml:space="preserve">
<style type="text/css">
	.st0{fill-rule:evenodd;clip-rule:evenodd;}
</style>
<path class="st0" d="M27.7,10.1c-0.1-0.1-0.2-0.1-0.3,0L25.6,12c-0.1,0.1-0.1,0.2,0,0.3l2.5,2.5c0.1,0.1,0.2,0.1,0.3,0l1.8-1.8
	c0.1-0.1,0.1-0.2,0-0.3L27.7,10.1z M24.6,13c0.1-0.1,0.2-0.1,0.3,0l2.5,2.5c0.1,0.1,0.1,0.2,0,0.3l-7.6,7.6l0,0L16.6,24
	c-0.1,0-0.3-0.1-0.2-0.2l0.6-3.2l0,0L24.6,13z"/>
<path class="st0" d="M19,13.6h-7.6c-0.4,0-0.8,0.3-0.8,0.8v14.2c0,0.4,0.3,0.8,0.8,0.8h14.2c0.4,0,0.8-0.3,0.8-0.8V22h-1.7v5.7H12.3
	V15.3H19V13.6z"/>
</svg>
