<svg width="40" height="40" viewBox="0 0 40 40" fill="none" xmlns="http://www.w3.org/2000/svg">
<path fill-rule="evenodd" clip-rule="evenodd" d="M15.0795 18.6627C14.8685 18.4517 14.75 18.1656 14.75 17.8672C14.75 17.5688 14.8685 17.2827 15.0795 17.0717C15.2905 16.8607 15.5766 16.7422 15.875 16.7422C16.1734 16.7422 16.4595 16.8607 16.6705 17.0717C16.8815 17.2827 17 17.5688 17 17.8672C17 18.1656 16.8815 18.4517 16.6705 18.6627C16.4595 18.8737 16.1734 18.9922 15.875 18.9922C15.5766 18.9922 15.2905 18.8737 15.0795 18.6627ZM23.3295 18.6627C23.1185 18.4517 23 18.1656 23 17.8672C23 17.5688 23.1185 17.2827 23.3295 17.0717C23.5405 16.8607 23.8266 16.7422 24.125 16.7422C24.4234 16.7422 24.7095 16.8607 24.9205 17.0717C25.1315 17.2827 25.25 17.5688 25.25 17.8672C25.25 18.1656 25.1315 18.4517 24.9205 18.6627C24.7095 18.8737 24.4234 18.9922 24.125 18.9922C23.8266 18.9922 23.5405 18.8737 23.3295 18.6627ZM9.5 20C9.5 14.2016 14.2016 9.5 20 9.5C25.7984 9.5 30.5 14.2016 30.5 20C30.5 25.7984 25.7984 30.5 20 30.5C14.2016 30.5 9.5 25.7984 9.5 20ZM23.3914 28.0344C24.4297 27.5938 25.3625 26.9656 26.1641 26.1641C26.9618 25.3711 27.5971 24.4301 28.0344 23.3937C28.4891 22.3203 28.7188 21.1789 28.7188 20C28.7188 18.8211 28.4891 17.6797 28.0367 16.6086C27.5961 15.5703 26.968 14.6375 26.1664 13.8359C25.3721 13.0387 24.4305 12.4035 23.3937 11.9656C22.3203 11.5109 21.1789 11.2812 20 11.2812C18.8211 11.2812 17.6797 11.5109 16.6086 11.9633C15.5703 12.4039 14.6375 13.032 13.8359 13.8336C13.0387 14.6278 12.4035 15.5695 11.9656 16.6063C11.5109 17.6797 11.2812 18.8211 11.2812 20C11.2812 21.1789 11.5109 22.3203 11.9633 23.3914C12.4039 24.4297 13.032 25.3625 13.8336 26.1641C14.6278 26.9613 15.5695 27.5965 16.6063 28.0344C17.6797 28.4891 18.8211 28.7188 20 28.7188C21.1789 28.7188 22.3203 28.4891 23.3914 28.0344ZM22.0166 21.3334C22.0166 22.4472 21.1137 23.3501 19.9999 23.3501C18.8862 23.3501 17.9833 22.4472 17.9833 21.3334C17.9833 20.9744 17.6923 20.6834 17.3333 20.6834C16.9743 20.6834 16.6833 20.9744 16.6833 21.3334C16.6833 23.1652 18.1682 24.6501 19.9999 24.6501C21.8317 24.6501 23.3166 23.1652 23.3166 21.3334C23.3166 20.9744 23.0256 20.6834 22.6666 20.6834C22.3076 20.6834 22.0166 20.9744 22.0166 21.3334Z" fill="black"/>
</svg>
