<?xml version="1.0" encoding="utf-8"?>
<!-- Generator: Adobe Illustrator 24.3.0, SVG Export Plug-In . SVG Version: 6.00 Build 0)  -->
<svg version="1.1" id="Layer_1" xmlns="http://www.w3.org/2000/svg" xmlns:xlink="http://www.w3.org/1999/xlink" x="0px" y="0px"
	 viewBox="0 0 40 40" style="enable-background:new 0 0 40 40;" xml:space="preserve">
<path d="M27.5,18.9h-1.6v-5.2c0-1.7-1.3-3-3-3h-5.8c-1.7,0-3,1.3-3,3v5.2h-1.6c-0.4,0-0.8,0.3-0.8,0.8v9c0,0.4,0.3,0.8,0.8,0.8h15
	c0.4,0,0.8-0.3,0.8-0.8v-9C28.2,19.2,27.9,18.9,27.5,18.9z M15.8,13.6c0-0.7,0.6-1.3,1.3-1.3h5.8c0.7,0,1.3,0.6,1.3,1.3v5.2h-8.4
	V13.6z M26.6,27.7H13.4v-7.1h13.1V27.7z M19.3,24.4v1.2c0,0.1,0.1,0.2,0.2,0.2h0.9c0.1,0,0.2-0.1,0.2-0.2v-1.2
	c0.2-0.1,0.3-0.3,0.4-0.6c0.1-0.2,0.1-0.5,0-0.7c-0.1-0.2-0.2-0.4-0.4-0.6c-0.2-0.1-0.4-0.2-0.7-0.2s-0.5,0.1-0.7,0.2
	c-0.2,0.1-0.3,0.3-0.4,0.6c-0.1,0.2-0.1,0.5,0,0.7C19,24.1,19.2,24.3,19.3,24.4z"/>
</svg>
