<?xml version="1.0" encoding="utf-8"?>
<!-- Generator: Adobe Illustrator 24.3.0, SVG Export Plug-In . SVG Version: 6.00 Build 0)  -->
<svg version="1.1" id="Layer_1" xmlns="http://www.w3.org/2000/svg" xmlns:xlink="http://www.w3.org/1999/xlink" x="0px" y="0px"
	 viewBox="0 0 40 40" style="enable-background:new 0 0 40 40;" xml:space="preserve">
<style type="text/css">
	.st0{fill-rule:evenodd;clip-rule:evenodd;}
</style>
<path class="st0" d="M20,16c1.1,0,2-0.9,2-2c0-1.1-0.9-2-2-2s-2,0.9-2,2C18,15,18.9,16,20,16z M20,18c-1.1,0-2,0.9-2,2
	c0,1.1,0.9,2,2,2s2-0.9,2-2C22,18.9,21.1,18,20,18z M20,24c-1.1,0-2,0.9-2,2c0,1.1,0.9,2,2,2s2-0.9,2-2C22,25,21.1,24,20,24z"/>
</svg>
