<?xml version="1.0" encoding="utf-8"?>
<!-- Generator: Adobe Illustrator 24.3.0, SVG Export Plug-In . SVG Version: 6.00 Build 0)  -->
<svg version="1.1" id="Layer_1" xmlns="http://www.w3.org/2000/svg" xmlns:xlink="http://www.w3.org/1999/xlink" x="0px" y="0px"
	 viewBox="0 0 40 40" style="enable-background:new 0 0 40 40;" xml:space="preserve">
<path d="M22.7,10.7c-0.1,0-0.3,0-0.4,0.1L14,16.2h-3.8c-0.2,0-0.4,0.2-0.4,0.4v6.8c0,0.2,0.2,0.4,0.4,0.4H14l8.3,5.4
	c0.1,0.1,0.3,0.1,0.4,0.1c0.4,0,0.8-0.3,0.8-0.8V11.4C23.4,11,23.1,10.7,22.7,10.7z M21.7,26.8l-6.9-4.5l-0.4-0.3h-3v-4.1h3l0.4-0.3
	l6.9-4.5V26.8z M29.9,19.2h-3c-0.2,0-0.4,0.2-0.4,0.4v0.9c0,0.2,0.2,0.4,0.4,0.4h3c0.2,0,0.4-0.2,0.4-0.4v-0.9
	C30.3,19.3,30.1,19.2,29.9,19.2z M28.9,25.3l-2.6-1.5c0,0-0.1,0-0.1,0c0,0-0.1,0-0.1,0c0,0-0.1,0-0.1,0.1c0,0-0.1,0.1-0.1,0.1
	l-0.5,0.8c-0.1,0.2,0,0.4,0.1,0.5l2.6,1.5c0,0,0.1,0,0.1,0c0,0,0.1,0,0.1,0c0,0,0.1,0,0.1-0.1c0,0,0.1-0.1,0.1-0.1l0.5-0.8
	C29.1,25.6,29.1,25.4,28.9,25.3z M25.8,16.1c0,0,0.1,0.1,0.1,0.1c0,0,0.1,0.1,0.1,0.1c0,0,0.1,0,0.1,0c0,0,0.1,0,0.1,0l2.6-1.5
	c0.2-0.1,0.2-0.3,0.1-0.5l-0.5-0.8c0,0-0.1-0.1-0.1-0.1c0,0-0.1-0.1-0.1-0.1c0,0-0.1,0-0.1,0c0,0-0.1,0-0.1,0l-2.6,1.5
	c-0.1,0-0.1,0.1-0.2,0.2c0,0.1,0,0.2,0,0.3L25.8,16.1z"/>
</svg>
