<?xml version="1.0" encoding="utf-8"?>
<!-- Generator: Adobe Illustrator 24.3.0, SVG Export Plug-In . SVG Version: 6.00 Build 0)  -->
<svg version="1.1" id="Layer_1" xmlns="http://www.w3.org/2000/svg" xmlns:xlink="http://www.w3.org/1999/xlink" x="0px" y="0px"
	 viewBox="0 0 40 40" style="enable-background:new 0 0 40 40;" xml:space="preserve">
<path d="M28.9,27.7l-5.8-5.8c0.9-1.2,1.4-2.6,1.4-4.1c0-1.8-0.7-3.5-2-4.8c-1.3-1.3-3-2-4.8-2c-1.8,0-3.5,0.7-4.8,2
	c-1.3,1.3-2,3-2,4.8c0,1.8,0.7,3.5,2,4.8c1.3,1.3,3,2,4.8,2c1.5,0,2.9-0.5,4.1-1.4l5.8,5.8c0,0,0,0,0.1,0c0,0,0,0,0.1,0
	c0,0,0,0,0.1,0c0,0,0,0,0.1,0l1-1c0,0,0,0,0-0.1c0,0,0,0,0-0.1C29,27.8,29,27.8,28.9,27.7C29,27.7,29,27.7,28.9,27.7L28.9,27.7z
	 M21.3,21.3c-1,1-2.2,1.5-3.6,1.5s-2.6-0.5-3.6-1.5c-1-1-1.5-2.2-1.5-3.6s0.5-2.6,1.5-3.6c1-1,2.2-1.5,3.6-1.5s2.6,0.5,3.6,1.5
	c1,1,1.5,2.2,1.5,3.6S22.3,20.4,21.3,21.3z"/>
</svg>
