<?xml version="1.0" encoding="utf-8"?>
<!-- Generator: Adobe Illustrator 24.3.0, SVG Export Plug-In . SVG Version: 6.00 Build 0)  -->
<svg version="1.1" id="Layer_1" xmlns="http://www.w3.org/2000/svg" xmlns:xlink="http://www.w3.org/1999/xlink" x="0px" y="0px"
	 viewBox="0 0 40 40" style="enable-background:new 0 0 40 40;" xml:space="preserve">
<path d="M28.5,13.6C28.5,13.6,28.5,13.6,28.5,13.6c-0.2-0.2-0.4-0.2-0.5-0.1l-4,4L22.4,16l4-4c0,0,0,0,0-0.1c0.1-0.1,0-0.3-0.1-0.4
	c-2.3-1.4-5.3-1-7.3,0.9c-1.6,1.6-2.1,3.8-1.6,5.8l-6.9,6.9c-0.1,0.1-0.1,0.2,0,0.3l4,4c0.1,0.1,0.2,0.1,0.3,0l6.9-6.9
	c2,0.5,4.2,0,5.8-1.6C29.6,18.9,29.9,15.9,28.5,13.6z M26.4,19.7c-1.4,1.4-3.4,1.6-5,0.8l-0.2,0.2l0,0l-6.4,6.4l-1.9-1.9l5.4-5.4
	c0,0,0,0,0,0l1.2-1.2c-0.8-1.6-0.6-3.7,0.8-5c0.4-0.4,1-0.8,1.6-1c0.6-0.2,1.2-0.3,1.8-0.3l-3.1,3.1c-0.1,0.1-0.2,0.3-0.2,0.5
	c0,0.2,0.1,0.4,0.2,0.5l2.9,2.9c0.1,0.1,0.3,0.2,0.5,0.2c0.2,0,0.4-0.1,0.5-0.2l3.1-3.1C27.8,17.6,27.3,18.8,26.4,19.7z"/>
</svg>
